<svg width="19" height="20" viewBox="0 0 19 20" fill="none" xmlns="http://www.w3.org/2000/svg">
<path fill-rule="evenodd" clip-rule="evenodd" d="M13.2778 12H16.1111C17.1547 12 18 11.105 18 10V3C18 1.895 17.1547 1 16.1111 1H9.5C8.45639 1 7.61111 1.895 7.61111 3V6" fill="#6246EA"/>
<path fill-rule="evenodd" clip-rule="evenodd" d="M8.55556 15H11.3889C12.4325 15 13.2778 14.105 13.2778 13V8C13.2778 6.895 12.4325 6 11.3889 6H6.66667C5.62306 6 4.77778 6.895 4.77778 8V11" fill="#D1D1E9"/>
<path fill-rule="evenodd" clip-rule="evenodd" d="M6.66667 19H2.88889C1.84528 19 1 18.105 1 17V13C1 11.895 1.84528 11 2.88889 11H6.66667C7.71028 11 8.55555 11.895 8.55555 13V17C8.55555 18.105 7.71028 19 6.66667 19Z" fill="#E45858"/>
<path d="M13.2778 12H16.1111C17.1547 12 18 11.105 18 10V3C18 1.895 17.1547 1 16.1111 1H9.5C8.45639 1 7.61111 1.895 7.61111 3V6M8.55556 15H11.3889C12.4325 15 13.2778 14.105 13.2778 13V8C13.2778 6.895 12.4325 6 11.3889 6H6.66667C5.62306 6 4.77778 6.895 4.77778 8V11M6.66667 19H2.88889C1.84528 19 1 18.105 1 17V13C1 11.895 1.84528 11 2.88889 11H6.66667C7.71028 11 8.55555 11.895 8.55555 13V17C8.55555 18.105 7.71028 19 6.66667 19Z" stroke="black" stroke-linecap="round" stroke-linejoin="round"/>
</svg>
