<svg width="30" height="30" viewBox="0 0 30 30" fill="none" xmlns="http://www.w3.org/2000/svg">
<path d="M21.2883 15.6633L11.9133 25.0383C11.8262 25.1254 11.7228 25.1945 11.609 25.2417C11.4952 25.2888 11.3732 25.3131 11.25 25.3131C11.1269 25.3131 11.0049 25.2888 10.8911 25.2417C10.7773 25.1945 10.6739 25.1254 10.5868 25.0383C10.4996 24.9512 10.4306 24.8478 10.3834 24.734C10.3363 24.6202 10.312 24.4982 10.312 24.375C10.312 24.2519 10.3363 24.1299 10.3834 24.0161C10.4306 23.9023 10.4996 23.7989 10.5868 23.7118L19.2996 15L10.5868 6.28831C10.4108 6.1124 10.312 5.87381 10.312 5.62503C10.312 5.37625 10.4108 5.13766 10.5868 4.96175C10.7627 4.78584 11.0013 4.68701 11.25 4.68701C11.4988 4.68701 11.7374 4.78584 11.9133 4.96175L21.2883 14.3368C21.3755 14.4238 21.4446 14.5272 21.4918 14.641C21.539 14.7548 21.5633 14.8768 21.5633 15C21.5633 15.1232 21.539 15.2452 21.4918 15.359C21.4446 15.4729 21.3755 15.5762 21.2883 15.6633Z" fill="#6246EA"/>
</svg>
