<svg width="30" height="30" viewBox="0 0 30 30" fill="none" xmlns="http://www.w3.org/2000/svg">
<path d="M19.4133 23.7118C19.5004 23.7989 19.5695 23.9023 19.6166 24.0161C19.6638 24.1299 19.688 24.2519 19.688 24.375C19.688 24.4982 19.6638 24.6202 19.6166 24.734C19.5695 24.8478 19.5004 24.9512 19.4133 25.0383C19.3262 25.1254 19.2228 25.1945 19.109 25.2417C18.9952 25.2888 18.8732 25.3131 18.75 25.3131C18.6268 25.3131 18.5048 25.2888 18.391 25.2417C18.2772 25.1945 18.1738 25.1254 18.0867 25.0383L8.71172 15.6633C8.62456 15.5762 8.55541 15.4729 8.50823 15.359C8.46105 15.2452 8.43677 15.1232 8.43677 15C8.43677 14.8768 8.46105 14.7548 8.50823 14.641C8.55541 14.5272 8.62456 14.4238 8.71172 14.3368L18.0867 4.96175C18.2626 4.78584 18.5012 4.68701 18.75 4.68701C18.9988 4.68701 19.2374 4.78584 19.4133 4.96175C19.5892 5.13766 19.688 5.37625 19.688 5.62503C19.688 5.87381 19.5892 6.1124 19.4133 6.28831L10.7004 15L19.4133 23.7118Z" fill="#6246EA"/>
</svg>
