<svg width="30" height="30" viewBox="0 0 30 30" fill="none" xmlns="http://www.w3.org/2000/svg">
<path d="M26.9133 9.10081L11.9133 24.1008C11.8262 24.188 11.7229 24.2571 11.609 24.3043C11.4952 24.3515 11.3732 24.3758 11.25 24.3758C11.1268 24.3758 11.0048 24.3515 10.891 24.3043C10.7772 24.2571 10.6738 24.188 10.5868 24.1008L4.02425 17.5383C3.84834 17.3624 3.74951 17.1238 3.74951 16.875C3.74951 16.6263 3.84834 16.3877 4.02425 16.2118C4.20016 16.0358 4.43875 15.937 4.68753 15.937C4.93631 15.937 5.1749 16.0358 5.35081 16.2118L11.25 22.1121L25.5868 7.77425C25.7627 7.59834 26.0013 7.49951 26.25 7.49951C26.4988 7.49951 26.7374 7.59834 26.9133 7.77425C27.0892 7.95016 27.1881 8.18875 27.1881 8.43753C27.1881 8.68631 27.0892 8.9249 26.9133 9.10081Z" fill="#E45858"/>
</svg>
