<svg width="25" height="24" viewBox="0 0 25 24" fill="none" xmlns="http://www.w3.org/2000/svg">
<path d="M22.4711 12C22.4681 14.3829 21.5938 16.6825 20.0129 18.4656C18.4321 20.2486 16.2538 21.3921 13.8883 21.6806C13.8357 21.6866 13.7823 21.6813 13.7318 21.6651C13.6814 21.649 13.6349 21.6223 13.5955 21.5869C13.556 21.5514 13.5246 21.508 13.5031 21.4596C13.4817 21.4111 13.4708 21.3586 13.4711 21.3056V14.25H15.7211C15.824 14.2502 15.9257 14.2293 16.0201 14.1885C16.1145 14.1478 16.1995 14.088 16.2699 14.013C16.3402 13.938 16.3943 13.8494 16.429 13.7526C16.4636 13.6558 16.478 13.5529 16.4711 13.4503C16.4546 13.2574 16.3656 13.078 16.2221 12.9481C16.0786 12.8181 15.8913 12.7474 15.6977 12.75H13.4711V10.5C13.4711 10.1022 13.6292 9.72062 13.9105 9.43932C14.1918 9.15801 14.5733 8.99998 14.9711 8.99998H16.4711C16.574 9.0002 16.6757 8.97929 16.7701 8.93853C16.8645 8.89777 16.9495 8.83804 17.0199 8.76304C17.0902 8.68805 17.1443 8.59939 17.179 8.50258C17.2136 8.40577 17.228 8.30288 17.2211 8.20029C17.2046 8.0071 17.1153 7.82739 16.9714 7.69742C16.8275 7.56745 16.6397 7.49689 16.4458 7.49998H14.9711C14.1755 7.49998 13.4124 7.81605 12.8498 8.37866C12.2872 8.94127 11.9711 9.70433 11.9711 10.5V12.75H9.72115C9.61833 12.7498 9.51657 12.7707 9.42218 12.8114C9.32779 12.8522 9.24278 12.9119 9.17245 12.9869C9.10211 13.0619 9.04795 13.1506 9.01332 13.2474C8.97869 13.3442 8.96434 13.4471 8.97115 13.5497C8.98774 13.7429 9.07698 13.9226 9.22087 14.0525C9.36476 14.1825 9.55259 14.2531 9.74646 14.25H11.9711V21.3075C11.9715 21.3604 11.9606 21.4128 11.9392 21.4612C11.9178 21.5096 11.8865 21.5529 11.8472 21.5884C11.8078 21.6238 11.7615 21.6505 11.7111 21.6667C11.6607 21.6829 11.6075 21.6883 11.5549 21.6825C9.12617 21.3867 6.89699 20.1899 5.30859 18.3289C3.7202 16.4679 2.88835 14.0785 2.97771 11.6334C3.16521 6.57091 7.26584 2.45529 12.3321 2.25841C13.6437 2.20761 14.9522 2.42187 16.1791 2.88838C17.406 3.35489 18.5263 4.06407 19.4728 4.9735C20.4193 5.88293 21.1727 6.97393 21.6879 8.18123C22.2031 9.38854 22.4695 10.6873 22.4711 12Z" fill="white"/>
</svg>
