<svg width="25" height="24" viewBox="0 0 25 24" fill="none" xmlns="http://www.w3.org/2000/svg">
<path d="M17.2212 2.25H8.22119C6.82926 2.25149 5.49477 2.80509 4.51053 3.78933C3.52628 4.77358 2.97268 6.10807 2.97119 7.5V16.5C2.97268 17.8919 3.52628 19.2264 4.51053 20.2107C5.49477 21.1949 6.82926 21.7485 8.22119 21.75H17.2212C18.6131 21.7485 19.9476 21.1949 20.9319 20.2107C21.9161 19.2264 22.4697 17.8919 22.4712 16.5V7.5C22.4697 6.10807 21.9161 4.77358 20.9319 3.78933C19.9476 2.80509 18.6131 2.25149 17.2212 2.25ZM12.7212 16.5C11.8312 16.5 10.9611 16.2361 10.2211 15.7416C9.4811 15.2471 8.90433 14.5443 8.56373 13.7221C8.22314 12.8998 8.13402 11.995 8.30766 11.1221C8.48129 10.2492 8.90987 9.44736 9.53921 8.81802C10.1685 8.18868 10.9704 7.7601 11.8433 7.58647C12.7162 7.41283 13.621 7.50195 14.4433 7.84254C15.2655 8.18314 15.9683 8.75991 16.4628 9.49993C16.9573 10.24 17.2212 11.11 17.2212 12C17.22 13.1931 16.7454 14.337 15.9018 15.1806C15.0582 16.0243 13.9143 16.4988 12.7212 16.5ZM18.3462 7.5C18.1237 7.5 17.9062 7.43402 17.7212 7.3104C17.5362 7.18679 17.392 7.01109 17.3068 6.80552C17.2217 6.59995 17.1994 6.37375 17.2428 6.15552C17.2862 5.93729 17.3934 5.73684 17.5507 5.5795C17.708 5.42217 17.9085 5.31502 18.1267 5.27162C18.3449 5.22821 18.5711 5.25049 18.7767 5.33564C18.9823 5.42078 19.158 5.56498 19.2816 5.74998C19.4052 5.93499 19.4712 6.1525 19.4712 6.375C19.4712 6.67337 19.3527 6.95952 19.1417 7.1705C18.9307 7.38147 18.6446 7.5 18.3462 7.5ZM15.7212 12C15.7212 12.5933 15.5452 13.1734 15.2156 13.6667C14.886 14.1601 14.4174 14.5446 13.8692 14.7716C13.3211 14.9987 12.7179 15.0581 12.1359 14.9424C11.554 14.8266 11.0194 14.5409 10.5999 14.1213C10.1803 13.7018 9.89459 13.1672 9.77884 12.5853C9.66308 12.0033 9.72249 11.4001 9.94955 10.8519C10.1766 10.3038 10.5611 9.83524 11.0545 9.50559C11.5478 9.17595 12.1278 9 12.7212 9C13.5168 9 14.2799 9.31607 14.8425 9.87868C15.4051 10.4413 15.7212 11.2044 15.7212 12Z" fill="white"/>
</svg>
