<svg width="28" height="28" viewBox="0 0 28 28" fill="none" xmlns="http://www.w3.org/2000/svg">
<path opacity="0.2" d="M22.9622 12.4622L12.4622 22.9622C11.475 23.9335 10.1439 24.4754 8.7589 24.4698C7.37393 24.4641 6.04729 23.9114 5.06796 22.9321C4.08863 21.9528 3.53596 20.6262 3.53032 19.2412C3.52468 17.8562 4.06653 16.5251 5.03785 15.5379L15.5379 5.03785C16.5251 4.06653 17.8562 3.52468 19.2412 3.53032C20.6262 3.53596 21.9528 4.08863 22.9321 5.06796C23.9114 6.04729 24.4641 7.37393 24.4698 8.7589C24.4754 10.1439 23.9335 11.475 22.9622 12.4622Z" fill="#D7D7EC"/>
<path d="M18.1189 9.88089C18.2002 9.96216 18.2648 10.0587 18.3088 10.1649C18.3528 10.2711 18.3755 10.385 18.3755 10.5C18.3755 10.6149 18.3528 10.7288 18.3088 10.835C18.2648 10.9413 18.2002 11.0378 18.1189 11.119L11.1189 18.119C11.0376 18.2003 10.9411 18.2648 10.8349 18.3088C10.7286 18.3528 10.6148 18.3754 10.4998 18.3754C10.3849 18.3754 10.271 18.3528 10.1648 18.3088C10.0586 18.2648 9.96206 18.2003 9.88076 18.119C9.79946 18.0377 9.73498 17.9412 9.69098 17.835C9.64698 17.7288 9.62434 17.6149 9.62434 17.5C9.62434 17.385 9.64698 17.2711 9.69098 17.1649C9.73498 17.0587 9.79946 16.9622 9.88076 16.8809L16.8808 9.88089C16.962 9.79954 17.0585 9.735 17.1648 9.69096C17.271 9.64693 17.3848 9.62427 17.4998 9.62427C17.6148 9.62427 17.7287 9.64693 17.8349 9.69096C17.9411 9.735 18.0376 9.79954 18.1189 9.88089ZM23.5811 4.4187C23.0123 3.84988 22.3371 3.39866 21.5939 3.09081C20.8507 2.78296 20.0542 2.62451 19.2498 2.62451C18.4454 2.62451 17.6489 2.78296 16.9057 3.09081C16.1626 3.39866 15.4873 3.84988 14.9186 4.4187L11.6308 7.70542C11.4666 7.86961 11.3743 8.09229 11.3743 8.32449C11.3743 8.55668 11.4666 8.77936 11.6308 8.94355C11.7949 9.10773 12.0176 9.19997 12.2498 9.19997C12.482 9.19997 12.7047 9.10773 12.8689 8.94355L16.1567 5.6623C16.9802 4.85692 18.088 4.40877 19.2398 4.41511C20.3917 4.42145 21.4945 4.88178 22.3091 5.69618C23.1236 6.51058 23.5841 7.61336 23.5907 8.76518C23.5972 9.917 23.1493 11.0249 22.344 11.8485L19.0551 15.1364C18.8909 15.3004 18.7987 15.5229 18.7986 15.755C18.7984 15.9871 18.8905 16.2098 19.0546 16.3739C19.2186 16.5381 19.4412 16.6304 19.6733 16.6305C19.9054 16.6306 20.128 16.5385 20.2922 16.3745L23.5811 13.0812C24.1499 12.5124 24.6011 11.8372 24.909 11.094C25.2168 10.3509 25.3753 9.55435 25.3753 8.74995C25.3753 7.94555 25.2168 7.14903 24.909 6.40587C24.6011 5.66271 24.1499 4.98747 23.5811 4.4187ZM15.1308 19.0553L11.8429 22.3431C11.4383 22.7568 10.9557 23.0861 10.423 23.312C9.8902 23.5378 9.31794 23.6558 8.73929 23.659C8.16065 23.6621 7.58712 23.5505 7.05192 23.3305C6.51672 23.1105 6.03047 22.7865 5.62134 22.3773C5.2122 21.9681 4.88831 21.4818 4.66841 20.9466C4.44852 20.4114 4.33698 19.8378 4.34027 19.2592C4.34356 18.6805 4.46161 18.1083 4.68757 17.5756C4.91354 17.0429 5.24294 16.5603 5.6567 16.1557L8.94342 12.869C9.1076 12.7048 9.19984 12.4821 9.19984 12.25C9.19984 12.0178 9.1076 11.7951 8.94342 11.6309C8.77923 11.4667 8.55655 11.3745 8.32436 11.3745C8.09216 11.3745 7.86948 11.4667 7.70529 11.6309L4.41857 14.9187C3.26986 16.0674 2.62451 17.6254 2.62451 19.25C2.62451 20.8745 3.26986 22.4325 4.41857 23.5812C5.56729 24.7299 7.12529 25.3753 8.74982 25.3753C10.3744 25.3753 11.9324 24.7299 13.0811 23.5812L16.3689 20.2923C16.5329 20.1281 16.625 19.9055 16.6249 19.6734C16.6248 19.4413 16.5325 19.2188 16.3683 19.0547C16.2042 18.8907 15.9815 18.7986 15.7494 18.7987C15.5173 18.7988 15.2948 18.8911 15.1308 19.0553Z" fill="#D7D7EC"/>
</svg>
