<svg width="194" height="32" viewBox="0 0 194 32" fill="none" xmlns="http://www.w3.org/2000/svg">
<rect x="5.32727" y="5.04992" width="17.0289" height="17.0289" rx="0.622268" fill="#6246CF" stroke="#212529" stroke-width="1.18383"/>
<rect x="2.95959" y="10.9689" width="13.3864" height="13.3864" rx="0.622268" fill="#D1D1E9" stroke="#212529" stroke-width="1.18383"/>
<rect x="0.591914" y="17.2067" width="9.74381" height="9.74381" rx="0.622268" fill="#E45858" stroke="#212529" stroke-width="1.18383"/>
<path d="M36.7097 24V8.50262H39.5171V21.6466H46.3426V24H36.7097ZM52.0028 24.2346C51.2662 24.2346 50.6029 24.1034 50.0126 23.8411C49.4274 23.5737 48.9633 23.1802 48.6203 22.6606C48.2823 22.141 48.1133 21.5003 48.1133 20.7386C48.1133 20.0828 48.2344 19.5405 48.4765 19.1117C48.7187 18.6829 49.0491 18.3398 49.4678 18.0825C49.8865 17.8253 50.3582 17.631 50.8828 17.4999C51.4125 17.3637 51.9599 17.2653 52.5249 17.2048C53.2059 17.1341 53.7583 17.0711 54.1821 17.0156C54.6059 16.955 54.9136 16.8642 55.1053 16.7432C55.302 16.617 55.4004 16.4228 55.4004 16.1605V16.1151C55.4004 15.545 55.2314 15.1036 54.8934 14.7909C54.5554 14.4781 54.0686 14.3217 53.433 14.3217C52.762 14.3217 52.2298 14.468 51.8363 14.7606C51.4479 15.0532 51.1855 15.3987 51.0493 15.7973L48.4916 15.4341C48.6934 14.7278 49.0264 14.1376 49.4905 13.6634C49.9546 13.1841 50.5222 12.8259 51.1931 12.5888C51.864 12.3467 52.6056 12.2256 53.4178 12.2256C53.9778 12.2256 54.5352 12.2912 55.0901 12.4224C55.6451 12.5535 56.1521 12.7704 56.6111 13.0731C57.0702 13.3708 57.4385 13.7769 57.7159 14.2914C57.9984 14.806 58.1397 15.4492 58.1397 16.221V24H55.5063V22.4033H55.4155C55.2491 22.7262 55.0145 23.0289 54.7118 23.3114C54.4142 23.5889 54.0383 23.8133 53.5843 23.9849C53.1353 24.1513 52.6081 24.2346 52.0028 24.2346ZM52.7141 22.2217C53.264 22.2217 53.7407 22.1133 54.1443 21.8964C54.5478 21.6744 54.8581 21.3818 55.075 21.0186C55.297 20.6553 55.408 20.2593 55.408 19.8305V18.4609C55.3222 18.5315 55.1759 18.5971 54.9691 18.6576C54.7673 18.7182 54.5403 18.7711 54.288 18.8165C54.0358 18.862 53.7861 18.9023 53.5389 18.9376C53.2917 18.9729 53.0773 19.0032 52.8957 19.0284C52.4871 19.0839 52.1213 19.1747 51.7985 19.3008C51.4756 19.427 51.2208 19.6035 51.0342 19.8305C50.8475 20.0525 50.7542 20.3401 50.7542 20.6932C50.7542 21.1977 50.9383 21.5785 51.3066 21.8358C51.6749 22.0931 52.144 22.2217 52.7141 22.2217ZM63.6334 17.1896V24H60.8941V12.377H63.5123V14.352H63.6485C63.9159 13.7012 64.3422 13.1841 64.9274 12.8007C65.5176 12.4173 66.2465 12.2256 67.1142 12.2256C67.9163 12.2256 68.615 12.3971 69.2103 12.7402C69.8106 13.0832 70.2748 13.5801 70.6027 14.2309C70.9356 14.8817 71.0996 15.6712 71.0945 16.5994V24H68.3552V17.0232C68.3552 16.2463 68.1535 15.6384 67.7499 15.1995C67.3513 14.7606 66.7989 14.5411 66.0927 14.5411C65.6134 14.5411 65.1872 14.6471 64.8138 14.859C64.4456 15.0658 64.1555 15.366 63.9436 15.7594C63.7368 16.1529 63.6334 16.6297 63.6334 17.1896ZM78.1924 24.2043C77.2794 24.2043 76.4621 23.9697 75.7407 23.5006C75.0193 23.0314 74.4493 22.3504 74.0306 21.4575C73.6118 20.5645 73.4025 19.4799 73.4025 18.2036C73.4025 16.9122 73.6144 15.8225 74.0381 14.9346C74.4669 14.0417 75.0445 13.3682 75.771 12.9142C76.4974 12.4552 77.3071 12.2256 78.2 12.2256C78.8811 12.2256 79.441 12.3416 79.8799 12.5737C80.3188 12.8007 80.6669 13.0757 80.9242 13.3985C81.1814 13.7163 81.3807 14.0165 81.522 14.299H81.6355V8.50262H84.3823V24H81.6884V22.1688H81.522C81.3807 22.4513 81.1764 22.7514 80.909 23.0692C80.6417 23.382 80.2885 23.6494 79.8496 23.8714C79.4107 24.0933 78.8584 24.2043 78.1924 24.2043ZM78.9567 21.9569C79.5369 21.9569 80.0312 21.8005 80.4399 21.4877C80.8485 21.1699 81.1587 20.7285 81.3706 20.1635C81.5825 19.5985 81.6884 18.9401 81.6884 18.1885C81.6884 17.4368 81.5825 16.7835 81.3706 16.2286C81.1638 15.6737 80.8561 15.2424 80.4474 14.9346C80.0439 14.6269 79.547 14.473 78.9567 14.473C78.3463 14.473 77.8368 14.632 77.4282 14.9498C77.0195 15.2676 76.7118 15.7065 76.505 16.2664C76.2982 16.8264 76.1947 17.4671 76.1947 18.1885C76.1947 18.9149 76.2982 19.5632 76.505 20.1332C76.7169 20.6982 77.0271 21.1447 77.4357 21.4726C77.8494 21.7955 78.3564 21.9569 78.9567 21.9569ZM87.3013 24V12.377H90.0406V24H87.3013ZM88.6785 10.7273C88.2447 10.7273 87.8714 10.5836 87.5586 10.296C87.2458 10.0034 87.0894 9.65281 87.0894 9.24419C87.0894 8.83052 87.2458 8.47991 87.5586 8.19236C87.8714 7.89977 88.2447 7.75347 88.6785 7.75347C89.1174 7.75347 89.4907 7.89977 89.7985 8.19236C90.1112 8.47991 90.2676 8.83052 90.2676 9.24419C90.2676 9.65281 90.1112 10.0034 89.7985 10.296C89.4907 10.5836 89.1174 10.7273 88.6785 10.7273ZM95.5967 17.1896V24H92.8575V12.377H95.4757V14.352H95.6119C95.8792 13.7012 96.3055 13.1841 96.8907 12.8007C97.4809 12.4173 98.2099 12.2256 99.0776 12.2256C99.8797 12.2256 100.578 12.3971 101.174 12.7402C101.774 13.0832 102.238 13.5801 102.566 14.2309C102.899 14.8817 103.063 15.6712 103.058 16.5994V24H100.319V17.0232C100.319 16.2463 100.117 15.6384 99.7132 15.1995C99.3147 14.7606 98.7623 14.5411 98.056 14.5411C97.5768 14.5411 97.1505 14.6471 96.7772 14.859C96.4089 15.0658 96.1189 15.366 95.907 15.7594C95.7002 16.1529 95.5967 16.6297 95.5967 17.1896ZM110.897 28.6008C109.914 28.6008 109.069 28.4671 108.362 28.1997C107.656 27.9374 107.089 27.5843 106.66 27.1403C106.231 26.6964 105.933 26.2045 105.767 25.6648L108.234 25.067C108.345 25.294 108.506 25.5185 108.718 25.7404C108.93 25.9674 109.215 26.1541 109.573 26.3004C109.936 26.4517 110.393 26.5274 110.943 26.5274C111.72 26.5274 112.363 26.3382 112.872 25.9599C113.382 25.5866 113.637 24.9711 113.637 24.1135V21.9115H113.5C113.359 22.194 113.152 22.4841 112.88 22.7817C112.613 23.0793 112.257 23.3291 111.813 23.5308C111.374 23.7326 110.822 23.8335 110.156 23.8335C109.263 23.8335 108.453 23.6242 107.727 23.2055C107.005 22.7817 106.43 22.1511 106.001 21.3137C105.578 20.4712 105.366 19.4169 105.366 18.1506C105.366 16.8743 105.578 15.7973 106.001 14.9195C106.43 14.0367 107.008 13.3682 107.734 12.9142C108.461 12.4552 109.27 12.2256 110.163 12.2256C110.844 12.2256 111.404 12.3416 111.843 12.5737C112.287 12.8007 112.64 13.0757 112.903 13.3985C113.165 13.7163 113.364 14.0165 113.5 14.299H113.652V12.377H116.353V24.1892C116.353 25.183 116.116 26.0053 115.642 26.656C115.168 27.3068 114.519 27.7936 113.697 28.1165C112.875 28.4394 111.942 28.6008 110.897 28.6008ZM110.92 21.6845C111.5 21.6845 111.995 21.5432 112.403 21.2607C112.812 20.9782 113.122 20.5721 113.334 20.0424C113.546 19.5127 113.652 18.8771 113.652 18.1355C113.652 17.404 113.546 16.7633 113.334 16.2135C113.127 15.6636 112.819 15.2373 112.411 14.9346C112.007 14.6269 111.51 14.473 110.92 14.473C110.31 14.473 109.8 14.632 109.392 14.9498C108.983 15.2676 108.675 15.704 108.468 16.2589C108.262 16.8087 108.158 17.4343 108.158 18.1355C108.158 18.8468 108.262 19.4698 108.468 20.0046C108.68 20.5343 108.99 20.9479 109.399 21.2456C109.813 21.5382 110.32 21.6845 110.92 21.6845ZM126.206 16.4178V18.6728H119.229V16.4178H126.206ZM134.232 24.227C133.067 24.227 132.061 23.9849 131.213 23.5006C130.371 23.0112 129.722 22.3201 129.268 21.4272C128.814 20.5292 128.587 19.4724 128.587 18.2566C128.587 17.061 128.814 16.0117 129.268 15.1087C129.727 14.2006 130.368 13.4944 131.19 12.9899C132.013 12.4804 132.979 12.2256 134.089 12.2256C134.805 12.2256 135.481 12.3416 136.117 12.5737C136.757 12.8007 137.322 13.1538 137.812 13.6331C138.306 14.1123 138.694 14.7228 138.977 15.4643C139.259 16.2009 139.401 17.0786 139.401 18.0977V18.9376H129.874V17.0913H136.775C136.77 16.5666 136.656 16.1 136.434 15.6913C136.212 15.2777 135.902 14.9523 135.504 14.7152C135.11 14.4781 134.651 14.3595 134.126 14.3595C133.566 14.3595 133.075 14.4957 132.651 14.7682C132.227 15.0355 131.897 15.3887 131.66 15.8276C131.427 16.2614 131.309 16.7381 131.304 17.2577V18.8695C131.304 19.5455 131.427 20.1257 131.675 20.6099C131.922 21.0892 132.267 21.4575 132.711 21.7147C133.155 21.967 133.675 22.0931 134.27 22.0931C134.669 22.0931 135.029 22.0376 135.352 21.9266C135.675 21.8106 135.955 21.6416 136.192 21.4196C136.429 21.1977 136.608 20.9227 136.729 20.5948L139.287 20.8824C139.126 21.5584 138.818 22.1486 138.364 22.6531C137.915 23.1525 137.34 23.5409 136.639 23.8184C135.937 24.0908 135.135 24.227 134.232 24.227ZM141.839 24V8.50262H147.772C148.892 8.50262 149.822 8.67918 150.564 9.03231C151.311 9.3804 151.868 9.85712 152.236 10.4625C152.61 11.0679 152.796 11.7539 152.796 12.5207C152.796 13.1513 152.675 13.6911 152.433 14.1401C152.191 14.584 151.866 14.9447 151.457 15.2222C151.048 15.4996 150.592 15.6989 150.087 15.82V15.9713C150.637 16.0016 151.164 16.1706 151.669 16.4783C152.178 16.781 152.595 17.2098 152.917 17.7647C153.24 18.3196 153.402 18.9906 153.402 19.7776C153.402 20.5797 153.207 21.3011 152.819 21.9418C152.431 22.5774 151.845 23.0793 151.063 23.4476C150.282 23.8159 149.298 24 148.112 24H141.839ZM144.647 21.6542H147.666C148.685 21.6542 149.419 21.46 149.868 21.0715C150.322 20.6781 150.549 20.1736 150.549 19.5581C150.549 19.0991 150.435 18.6854 150.208 18.3171C149.981 17.9438 149.658 17.6512 149.24 17.4393C148.821 17.2224 148.322 17.114 147.741 17.114H144.647V21.6542ZM144.647 15.0935H147.424C147.908 15.0935 148.344 15.0053 148.733 14.8287C149.121 14.6471 149.426 14.3923 149.648 14.0644C149.875 13.7315 149.989 13.338 149.989 12.884C149.989 12.2836 149.777 11.7893 149.353 11.4008C148.935 11.0124 148.312 10.8181 147.484 10.8181H144.647V15.0935ZM160.793 24.227C159.658 24.227 158.674 23.9773 157.842 23.4779C157.009 22.9784 156.364 22.2797 155.904 21.3818C155.45 20.4838 155.223 19.4345 155.223 18.2339C155.223 17.0332 155.45 15.9814 155.904 15.0784C156.364 14.1754 157.009 13.4742 157.842 12.9748C158.674 12.4753 159.658 12.2256 160.793 12.2256C161.928 12.2256 162.912 12.4753 163.744 12.9748C164.576 13.4742 165.22 14.1754 165.674 15.0784C166.133 15.9814 166.362 17.0332 166.362 18.2339C166.362 19.4345 166.133 20.4838 165.674 21.3818C165.22 22.2797 164.576 22.9784 163.744 23.4779C162.912 23.9773 161.928 24.227 160.793 24.227ZM160.808 22.0326C161.423 22.0326 161.938 21.8636 162.352 21.5256C162.765 21.1825 163.073 20.7235 163.275 20.1484C163.482 19.5733 163.585 18.9326 163.585 18.2263C163.585 17.515 163.482 16.8718 163.275 16.2967C163.073 15.7166 162.765 15.255 162.352 14.9119C161.938 14.5689 161.423 14.3974 160.808 14.3974C160.177 14.3974 159.653 14.5689 159.234 14.9119C158.82 15.255 158.51 15.7166 158.303 16.2967C158.101 16.8718 158.001 17.515 158.001 18.2263C158.001 18.9326 158.101 19.5733 158.303 20.1484C158.51 20.7235 158.82 21.1825 159.234 21.5256C159.653 21.8636 160.177 22.0326 160.808 22.0326ZM173.757 24.227C172.622 24.227 171.638 23.9773 170.806 23.4779C169.974 22.9784 169.328 22.2797 168.869 21.3818C168.415 20.4838 168.188 19.4345 168.188 18.2339C168.188 17.0332 168.415 15.9814 168.869 15.0784C169.328 14.1754 169.974 13.4742 170.806 12.9748C171.638 12.4753 172.622 12.2256 173.757 12.2256C174.892 12.2256 175.876 12.4753 176.708 12.9748C177.541 13.4742 178.184 14.1754 178.638 15.0784C179.097 15.9814 179.326 17.0332 179.326 18.2339C179.326 19.4345 179.097 20.4838 178.638 21.3818C178.184 22.2797 177.541 22.9784 176.708 23.4779C175.876 23.9773 174.892 24.227 173.757 24.227ZM173.772 22.0326C174.388 22.0326 174.902 21.8636 175.316 21.5256C175.73 21.1825 176.037 20.7235 176.239 20.1484C176.446 19.5733 176.549 18.9326 176.549 18.2263C176.549 17.515 176.446 16.8718 176.239 16.2967C176.037 15.7166 175.73 15.255 175.316 14.9119C174.902 14.5689 174.388 14.3974 173.772 14.3974C173.142 14.3974 172.617 14.5689 172.198 14.9119C171.785 15.255 171.474 15.7166 171.268 16.2967C171.066 16.8718 170.965 17.515 170.965 18.2263C170.965 18.9326 171.066 19.5733 171.268 20.1484C171.474 20.7235 171.785 21.1825 172.198 21.5256C172.617 21.8636 173.142 22.0326 173.772 22.0326ZM184.149 20.3527L184.141 17.0459H184.58L188.757 12.377H191.958L186.82 18.0977H186.252L184.149 20.3527ZM181.651 24V8.50262H184.391V24H181.651ZM188.946 24L185.163 18.7106L187.009 16.781L192.223 24H188.946Z" fill="#F8F9FA"/>
</svg>
