<svg width="32" height="32" viewBox="0 0 32 32" fill="none" xmlns="http://www.w3.org/2000/svg">
<path opacity="0.2" d="M27 14V17C27 17.5304 26.7893 18.0391 26.4142 18.4142C26.0391 18.7893 25.5304 19 25 19H19C18.8567 19 18.7152 19.0308 18.5848 19.0902C18.4545 19.1497 18.3385 19.2365 18.2446 19.3447C18.1507 19.4529 18.0812 19.5801 18.0407 19.7175C18.0002 19.8549 17.9898 19.9994 18.01 20.1413L19 26C19 26.7956 18.6839 27.5587 18.1213 28.1213C17.5587 28.6839 16.7956 29 16 29C15.2044 29 14.4413 28.6839 13.8787 28.1213C13.3161 27.5587 13 26.7956 13 26L13.99 20.1413C14.0102 19.9994 13.9998 19.8549 13.9593 19.7175C13.9188 19.5801 13.8493 19.4529 13.7554 19.3447C13.6615 19.2365 13.5455 19.1497 13.4152 19.0902C13.2848 19.0308 13.1433 19 13 19H7C6.46957 19 5.96086 18.7893 5.58579 18.4142C5.21071 18.0391 5 17.5304 5 17V14H27Z" fill="#6246EA"/>
<path d="M27 3H9C7.67392 3 6.40215 3.52678 5.46447 4.46447C4.52678 5.40215 4 6.67392 4 8V17C4 17.7956 4.31607 18.5587 4.87868 19.1213C5.44129 19.6839 6.20435 20 7 20H13L12.0138 25.8337C12.0048 25.8887 12.0002 25.9443 12 26C12 27.0609 12.4214 28.0783 13.1716 28.8284C13.9217 29.5786 14.9391 30 16 30C17.0609 30 18.0783 29.5786 18.8284 28.8284C19.5786 28.0783 20 27.0609 20 26C19.9998 25.9443 19.9952 25.8887 19.9862 25.8337L19 20H25C25.7956 20 26.5587 19.6839 27.1213 19.1213C27.6839 18.5587 28 17.7956 28 17V4C28 3.73478 27.8946 3.48043 27.7071 3.29289C27.5196 3.10536 27.2652 3 27 3ZM9 5H22V10C22 10.2652 22.1054 10.5196 22.2929 10.7071C22.4804 10.8946 22.7348 11 23 11C23.2652 11 23.5196 10.8946 23.7071 10.7071C23.8946 10.5196 24 10.2652 24 10V5H26V13H6V8C6 7.20435 6.31607 6.44129 6.87868 5.87868C7.44129 5.31607 8.20435 5 9 5ZM25 18H19C18.7135 18 18.4303 18.0615 18.1696 18.1805C17.909 18.2994 17.6769 18.473 17.4892 18.6894C17.3014 18.9059 17.1624 19.1601 17.0814 19.435C17.0005 19.7098 16.9795 19.9989 17.02 20.2825V20.3075L18 26.075C18 26.6054 17.7893 27.1141 17.4142 27.4892C17.0391 27.8643 16.5304 28.075 16 28.075C15.4696 28.075 14.9609 27.8643 14.5858 27.4892C14.2107 27.1141 14 26.6054 14 26.075L14.975 20.3075V20.2825C15.0154 19.9993 14.9946 19.7107 14.9139 19.4362C14.8333 19.1617 14.6947 18.9077 14.5075 18.6913C14.3203 18.475 14.0888 18.3013 13.8288 18.1821C13.5687 18.0628 13.2861 18.0007 13 18H7C6.73478 18 6.48043 17.8946 6.29289 17.7071C6.10536 17.5196 6 17.2652 6 17V15H26V17C26 17.2652 25.8946 17.5196 25.7071 17.7071C25.5196 17.8946 25.2652 18 25 18Z" fill="#6246EA"/>
</svg>
