<svg width="32" height="32" viewBox="0 0 32 32" fill="none" xmlns="http://www.w3.org/2000/svg">
<path opacity="0.2" d="M22 16C22 17.1867 21.6481 18.3467 20.9888 19.3334C20.3295 20.3201 19.3925 21.0892 18.2961 21.5433C17.1997 21.9974 15.9933 22.1162 14.8295 21.8847C13.6656 21.6532 12.5965 21.0818 11.7574 20.2426C10.9182 19.4035 10.3468 18.3344 10.1153 17.1705C9.88378 16.0067 10.0026 14.8003 10.4567 13.7039C10.9109 12.6075 11.6799 11.6705 12.6666 11.0112C13.6533 10.3519 14.8133 10 16 10C17.5913 10 19.1174 10.6321 20.2426 11.7574C21.3679 12.8826 22 14.4087 22 16Z" fill="#6246EA"/>
<path d="M27.7338 10.395C29.1215 13.2973 29.3849 16.6107 28.4733 19.6957C27.5616 22.7808 25.5395 25.4188 22.7972 27.1006C20.055 28.7825 16.7869 29.3889 13.6238 28.8029C10.4607 28.2169 7.62675 26.4799 5.66897 23.9274C3.71118 21.3748 2.76831 18.1874 3.02235 14.9805C3.27638 11.7737 4.7093 8.77454 7.04455 6.56201C9.37981 4.34949 12.4518 3.08041 15.6678 2.9997C18.8837 2.919 22.0155 4.0324 24.4588 6.12501L27.2926 3.29001C27.4802 3.10237 27.7347 2.99695 28.0001 2.99695C28.2654 2.99695 28.5199 3.10237 28.7076 3.29001C28.8952 3.47765 29.0006 3.73215 29.0006 3.99751C29.0006 4.26287 28.8952 4.51737 28.7076 4.70501L16.7076 16.705C16.5199 16.8927 16.2654 16.9981 16.0001 16.9981C15.7347 16.9981 15.4802 16.8927 15.2926 16.705C15.1049 16.5174 14.9995 16.2629 14.9995 15.9975C14.9995 15.7321 15.1049 15.4776 15.2926 15.29L18.7576 11.825C17.8185 11.204 16.6973 10.918 15.5755 11.0134C14.4537 11.1089 13.397 11.5801 12.5763 12.3509C11.7557 13.1217 11.2192 14.1469 11.0537 15.2605C10.8882 16.3741 11.1034 17.511 11.6645 18.4871C12.2255 19.4632 13.0996 20.2214 14.1451 20.6389C15.1907 21.0564 16.3466 21.1089 17.4257 20.7877C18.5047 20.4666 19.4438 19.7906 20.091 18.8693C20.7381 17.948 21.0553 16.8353 20.9913 15.7113C20.9839 15.5799 21.0025 15.4484 21.0459 15.3243C21.0893 15.2001 21.1568 15.0858 21.2444 14.9877C21.3321 14.8896 21.4382 14.8097 21.5567 14.7527C21.6752 14.6956 21.8037 14.6624 21.9351 14.655C22.2003 14.6401 22.4606 14.7311 22.6586 14.9081C22.7567 14.9958 22.8366 15.1019 22.8937 15.2204C22.9507 15.3389 22.9839 15.4674 22.9913 15.5988C23.0825 17.1897 22.6281 18.7642 21.7032 20.0619C20.7783 21.3596 19.4383 22.3029 17.9046 22.7359C16.371 23.1689 14.7355 23.0656 13.2686 22.4431C11.8016 21.8207 10.5909 20.7163 9.83658 19.3125C9.08229 17.9088 8.82955 16.2897 9.12014 14.7228C9.41073 13.1559 10.2272 11.7351 11.4347 10.6952C12.6422 9.65523 14.1684 9.05843 15.761 9.0034C17.3537 8.94837 18.9174 9.4384 20.1938 10.3925L23.0376 7.54876C20.9536 5.8185 18.3038 4.91921 15.5971 5.0236C12.8905 5.128 10.3178 6.22871 8.3733 8.11434C6.42876 9.99997 5.24945 12.5376 5.06187 15.2397C4.87429 17.9419 5.69167 20.6181 7.35701 22.7543C9.02236 24.8905 11.4182 26.3361 14.0845 26.8135C16.7508 27.2909 19.4994 26.7663 21.8025 25.3406C24.1056 23.9149 25.8007 21.6886 26.5623 19.0892C27.3239 16.4898 27.0983 13.7007 25.9288 11.2575C25.8144 11.0182 25.7998 10.7432 25.8882 10.493C25.9766 10.2429 26.1607 10.0381 26.4001 9.92376C26.6394 9.80938 26.9144 9.79478 27.1645 9.88316C27.4147 9.97153 27.6194 10.1557 27.7338 10.395Z" fill="#6246EA"/>
</svg>
