<svg width="32" height="32" viewBox="0 0 32 32" fill="none" xmlns="http://www.w3.org/2000/svg">
<path opacity="0.2" d="M29 20.5C29 22.4325 27.2088 24 25 24C22.7913 24 21 22.4325 21 20.5C21 18.5675 22.7913 17 25 17C27.2088 17 29 18.5675 29 20.5ZM4.35254 19H15.6475L10 7L4.35254 19Z" fill="#6246EA"/>
<path d="M10.9051 6.57386C10.8243 6.40206 10.6963 6.2568 10.5361 6.15505C10.3758 6.0533 10.1899 5.99927 10.0001 5.99927C9.81026 5.99927 9.62435 6.0533 9.46409 6.15505C9.30383 6.2568 9.17585 6.40206 9.09509 6.57386L1.09509 23.5739C1.0392 23.6927 1.00726 23.8214 1.0011 23.9526C0.994942 24.0838 1.01468 24.2149 1.0592 24.3385C1.1491 24.588 1.33444 24.7916 1.57447 24.9045C1.81449 25.0174 2.08952 25.0303 2.33906 24.9404C2.5886 24.8505 2.79221 24.6651 2.90509 24.4251L4.98759 20.0001H15.0126L17.0951 24.4251C17.151 24.544 17.2297 24.6506 17.3269 24.739C17.424 24.8274 17.5376 24.8959 17.6611 24.9404C17.7847 24.9849 17.9158 25.0046 18.047 24.9985C18.1782 24.9923 18.3069 24.9604 18.4257 24.9045C18.5446 24.8486 18.6512 24.7698 18.7396 24.6727C18.8281 24.5756 18.8965 24.462 18.941 24.3385C18.9855 24.2149 19.0052 24.0838 18.9991 23.9526C18.9929 23.8214 18.961 23.6927 18.9051 23.5739L10.9051 6.57386ZM5.92884 18.0001L10.0001 9.34886L14.0713 18.0001H5.92884ZM25.0001 12.0001C23.4051 12.0001 22.1588 12.4339 21.2963 13.2901C21.1158 13.4784 21.0159 13.7297 21.018 13.9905C21.0202 14.2514 21.1241 14.5011 21.3078 14.6863C21.4914 14.8716 21.7402 14.9778 22.001 14.9822C22.2618 14.9867 22.514 14.889 22.7038 14.7101C23.1788 14.2389 23.9538 14.0001 25.0001 14.0001C26.6538 14.0001 28.0001 15.1251 28.0001 16.5001V16.9026C27.1127 16.3089 26.0678 15.9945 25.0001 16.0001C22.2426 16.0001 20.0001 18.0189 20.0001 20.5001C20.0001 22.9814 22.2426 25.0001 25.0001 25.0001C26.0682 25.0048 27.1132 24.6891 28.0001 24.0939C28.0125 24.3591 28.1298 24.6085 28.3261 24.7872C28.5225 24.966 28.7817 25.0594 29.047 25.047C29.3122 25.0345 29.5616 24.9173 29.7403 24.7209C29.9191 24.5246 30.0125 24.2653 30.0001 24.0001V16.5001C30.0001 14.0189 27.7576 12.0001 25.0001 12.0001ZM25.0001 23.0001C23.3463 23.0001 22.0001 21.8751 22.0001 20.5001C22.0001 19.1251 23.3463 18.0001 25.0001 18.0001C26.6538 18.0001 28.0001 19.1251 28.0001 20.5001C28.0001 21.8751 26.6538 23.0001 25.0001 23.0001Z" fill="#6246EA"/>
</svg>
