<svg width="25" height="24" viewBox="0 0 25 24" fill="none" xmlns="http://www.w3.org/2000/svg">
<path d="M23.752 7.28068L20.9489 10.0838C20.3826 16.6482 14.8467 21.7501 8.22136 21.7501C6.86011 21.7501 5.73792 21.5344 4.88573 21.1088C4.19855 20.7647 3.9173 20.3963 3.84699 20.2913C3.78429 20.1973 3.74365 20.0903 3.72811 19.9784C3.71257 19.8664 3.72252 19.7524 3.75723 19.6449C3.79194 19.5373 3.8505 19.439 3.92854 19.3573C4.00659 19.2756 4.10209 19.2125 4.20792 19.1729C4.2323 19.1635 6.48042 18.3001 7.90824 16.6566C7.11641 16.0056 6.42518 15.2411 5.85699 14.3879C4.69449 12.6619 3.39323 9.66381 3.79448 5.1835C3.8072 5.04113 3.86034 4.90537 3.94763 4.79219C4.03492 4.67901 4.15273 4.59313 4.2872 4.54467C4.42166 4.4962 4.56717 4.48717 4.7066 4.51863C4.84602 4.55009 4.97355 4.62073 5.07417 4.72225C5.10699 4.75506 8.19417 7.82537 11.9685 8.821V8.25006C11.9671 7.65137 12.0855 7.05844 12.3167 6.50619C12.5479 5.95394 12.8873 5.45353 13.3148 5.03443C13.73 4.6198 14.2241 4.29253 14.7678 4.07194C15.3116 3.85135 15.894 3.7419 16.4807 3.75006C17.2678 3.75782 18.0395 3.96911 18.7208 4.36338C19.402 4.75764 19.9697 5.32148 20.3685 6.00006H23.2214C23.3698 5.99994 23.5149 6.04386 23.6383 6.12627C23.7618 6.20867 23.858 6.32585 23.9148 6.46297C23.9716 6.60008 23.9865 6.75097 23.9575 6.89654C23.9285 7.0421 23.857 7.17579 23.752 7.28068Z" fill="white"/>
</svg>
