<svg width="25" height="24" viewBox="0 0 25 24" fill="none" xmlns="http://www.w3.org/2000/svg">
<path d="M22.6896 6.5175C22.6013 6.17189 22.432 5.85224 22.1959 5.58491C21.9597 5.31758 21.6633 5.11024 21.3312 4.98C18.1174 3.73875 13.0024 3.75 12.7212 3.75C12.4399 3.75 7.32494 3.73875 4.11119 4.98C3.77909 5.11024 3.48272 5.31758 3.24653 5.58491C3.01034 5.85224 2.84109 6.17189 2.75275 6.5175C2.50994 7.45313 2.22119 9.16313 2.22119 12C2.22119 14.8369 2.50994 16.5469 2.75275 17.4825C2.84096 17.8283 3.01014 18.1481 3.24635 18.4156C3.48255 18.6831 3.77899 18.8906 4.11119 19.0209C7.18994 20.2088 12.0087 20.25 12.6593 20.25H12.7831C13.4337 20.25 18.2553 20.2088 21.3312 19.0209C21.6634 18.8906 21.9598 18.6831 22.196 18.4156C22.4322 18.1481 22.6014 17.8283 22.6896 17.4825C22.9324 16.545 23.2212 14.8369 23.2212 12C23.2212 9.16313 22.9324 7.45313 22.6896 6.5175ZM15.9293 12.3122L11.4293 15.3122C11.3728 15.3499 11.3072 15.3715 11.2393 15.3748C11.1715 15.3781 11.1041 15.3629 11.0442 15.3309C10.9843 15.2988 10.9343 15.2511 10.8994 15.1928C10.8645 15.1346 10.8461 15.0679 10.8462 15V9C10.8461 8.9321 10.8645 8.86545 10.8994 8.80718C10.9343 8.74892 10.9843 8.70121 11.0442 8.66916C11.1041 8.63711 11.1715 8.62191 11.2393 8.6252C11.3072 8.62849 11.3728 8.65013 11.4293 8.68782L15.9293 11.6878C15.9808 11.722 16.0229 11.7685 16.0521 11.8229C16.0813 11.8774 16.0966 11.9382 16.0966 12C16.0966 12.0618 16.0813 12.1226 16.0521 12.1771C16.0229 12.2315 15.9808 12.278 15.9293 12.3122Z" fill="white"/>
</svg>
